<?xml version="1.0" encoding="iso-8859-1"?>
<!-- Generator: Adobe Illustrator 19.0.0, SVG Export Plug-In . SVG Version: 6.00 Build 0)  -->
<svg version="1.1" id="Layer_1" xmlns="http://www.w3.org/2000/svg" xmlns:xlink="http://www.w3.org/1999/xlink" x="0px" y="0px"
	 viewBox="0 0 511.999 511.999" style="enable-background:new 0 0 511.999 511.999;" xml:space="preserve">
<polygon style="fill:#FFAD61;" points="418.002,211.693 255.999,71.348 93.998,211.693 141.447,211.693 141.447,397.339 
	370.552,397.339 370.552,211.693 "/>
<rect x="205.853" y="233.209" style="fill:#72BEDE;" width="100.302" height="104.868"/>
<g>
	<path style="fill:#534741;" d="M12.557,221.573c0.62,0.113,1.236,0.168,1.845,0.168c4.827-0.001,9.116-3.444,10.015-8.361
		C44.841,101.652,142.236,20.559,255.999,20.559c94.14,0,180.005,57.182,216.697,143.264l-19.216,5.639l44.129,42.084l14.389-59.257
		l-19.619,5.758c-18.578-44.852-49.317-83.243-89.305-111.39C359.872,16.249,309.013,0.175,255.999,0.175
		c-123.611,0-229.441,88.124-251.636,209.539C3.351,215.251,7.019,220.561,12.557,221.573z"/>
	<path style="fill:#534741;" d="M499.444,290.428c-5.539-1.013-10.847,2.654-11.86,8.191c-0.465,2.543-0.979,5.116-1.53,7.648
		c-1.196,5.5,2.294,10.929,7.795,12.125c0.73,0.159,1.457,0.234,2.175,0.234c4.691,0,8.913-3.258,9.95-8.029
		c0.597-2.751,1.157-5.547,1.662-8.309C508.649,296.751,504.981,291.441,499.444,290.428z"/>
	<path style="fill:#534741;" d="M489.506,333.09c-5.266-1.983-11.147,0.676-13.133,5.942
		c-34.362,91.16-122.924,152.409-220.374,152.409c-94.14,0-180.005-57.183-216.697-143.264l19.216-5.639l-44.129-42.084L0,359.71
		l19.619-5.758c18.578,44.852,49.317,83.243,89.305,111.39c43.203,30.409,94.061,46.482,147.075,46.482
		c53.037,0,103.913-16.086,147.127-46.519c42.245-29.75,74.169-70.93,92.321-119.084
		C497.433,340.955,494.772,335.075,489.506,333.09z"/>
	<path style="fill:#534741;" d="M141.447,407.531h229.105c5.629,0,10.192-4.564,10.192-10.192V221.886h37.257
		c4.255,0,8.063-2.644,9.55-6.631s0.34-8.478-2.876-11.265L262.673,63.645c-3.83-3.319-9.518-3.319-13.348,0L87.324,203.989
		c-3.217,2.787-4.363,7.278-2.876,11.265c1.487,3.987,5.294,6.631,9.55,6.631h37.257V397.34
		C131.255,402.968,135.818,407.531,141.447,407.531z M121.328,201.501L255.999,84.834l134.671,116.667h-20.118
		c-5.629,0-10.192,4.564-10.192,10.192v175.454H151.639V211.693c0-5.628-4.563-10.192-10.192-10.192H121.328z"/>
	<path style="fill:#534741;" d="M205.848,348.26h100.305c5.629,0,10.192-4.564,10.192-10.192V233.204
		c0-5.628-4.563-10.192-10.192-10.192H205.848c-5.629,0-10.192,4.564-10.192,10.192v104.864
		C195.655,343.696,200.218,348.26,205.848,348.26z M216.04,243.396h79.92v84.479h-79.92V243.396z"/>
</g>
<g>
</g>
<g>
</g>
<g>
</g>
<g>
</g>
<g>
</g>
<g>
</g>
<g>
</g>
<g>
</g>
<g>
</g>
<g>
</g>
<g>
</g>
<g>
</g>
<g>
</g>
<g>
</g>
<g>
</g>
</svg>
