<svg width="900" height="936" viewBox="0 0 1006 936" fill="#02071a67" xmlns="http://www.w3.org/2000/svg">
<path d="M152.032 936H0V0H1006C1006 0 987.969 36.228 976.887 59.8356C958.388 99.2469 931.601 162.411 931.601 162.411C931.601 162.411 907.91 201.55 889.55 222.247C860.703 254.763 838.338 261.426 805.447 286.356C749.995 328.387 663.119 393.205 663.119 393.205C663.119 393.205 613.476 419.193 588.72 448.767C564.538 477.655 558.713 503.066 540.199 538.521C522.093 573.194 516.87 597.729 494.913 628.274C443.852 699.307 381.693 671.766 320.238 726.575C289.002 754.434 269.129 768.634 245.839 807.781C228.02 837.733 230.903 866.665 210.257 893.26C191.632 917.252 152.032 936 152.032 936Z" fill="#02071A" fill-opacity="0.43"/>

</svg>
